<?xml version="1.0" encoding="UTF-8" standalone="no"?>
<!-- Generator: Adobe Illustrator 25.4.1, SVG Export Plug-In . SVG Version: 6.00 Build 0)  -->

<svg
   version="1.1"
   id="Calque_1"
   x="0px"
   y="0px"
   viewBox="0 0 1034.14 68"
   xml:space="preserve"
   sodipodi:docname="logo-blanc.svg"
   width="1034.14"
   height="68"
   inkscape:version="1.1.1 (c3084ef, 2021-09-22)"
   xmlns:inkscape="http://www.inkscape.org/namespaces/inkscape"
   xmlns:sodipodi="http://sodipodi.sourceforge.net/DTD/sodipodi-0.dtd"
   xmlns="http://www.w3.org/2000/svg"
   xmlns:svg="http://www.w3.org/2000/svg"><defs
   id="defs837" /><sodipodi:namedview
   id="namedview835"
   pagecolor="#ffffff"
   bordercolor="#666666"
   borderopacity="1.0"
   inkscape:pageshadow="2"
   inkscape:pageopacity="0.0"
   inkscape:pagecheckerboard="0"
   showgrid="false"
   inkscape:zoom="1.1138996"
   inkscape:cx="517.10225"
   inkscape:cy="34.114385"
   inkscape:window-width="1920"
   inkscape:window-height="1080"
   inkscape:window-x="0"
   inkscape:window-y="0"
   inkscape:window-maximized="0"
   inkscape:current-layer="Calque_1" />
<style
   type="text/css"
   id="style824">
	.st0{fill:#FFFFFF;}
</style>
<g
   id="g1168"
   transform="translate(-0.6,-3)"><path
     style="fill:#0000b9;fill-opacity:1"
     d="M 0.6,3.87 V 70.12 H 13.42 V 42.25 H 48.3 V 70.13 H 61.12 V 3.87 H 48.3 v 27.3 H 13.42 V 3.87 Z"
     id="path997" /><path
     id="path995"
     style="fill:#0000b9;fill-opacity:1"
     d="M 108.7207,3 C 84.340703,3 72.580078,20.289609 72.580078,37.099609 c 0,18.07 13.41,33.900391 35.750002,33.900391 23.31,0 36.5293,-16.029609 36.5293,-34.099609 C 144.85938,18.060391 130.5807,3 108.7207,3 Z m 0.0996,11.560547 c 14.96,0 22.92969,11.369844 22.92969,22.339844 0,14.67 -10.30055,22.539062 -23.31055,22.539062 -12.629997,0 -22.728513,-9.129844 -22.728512,-22.339844 -0.01,-12.83 8.629375,-22.539062 23.109372,-22.539062 z" /><path
     id="path991"
     style="fill:#0000b9;fill-opacity:1"
     d="M 156.32031,3.8808594 V 70.119141 h 12.82031 V 42.25 h 3.68946 c 5.15,0 9.02898,1.850625 14.95898,12.140625 l 9.13086,15.740234 h 14.4707 L 201.18945,52.939453 c -5.34,-8.84 -7.47859,-11.07 -11.55859,-13.5 7.38,-3.11 10.97852,-8.939922 10.97852,-16.419922 0,-10.59 -7.37977,-19.1386716 -21.75977,-19.1386716 z m 12.82031,9.7089846 h 7.76954 c 7.09,0 10.68945,3.589531 10.68945,9.519531 0,7.87 -5.24922,9.710937 -11.94922,9.710937 h -6.50977 z" /><path
     style="fill:#0000b9;fill-opacity:1"
     d="M 218.88,70.13 H 231.7 V 3.87 h -12.82 z"
     id="path987" /><path
     style="fill:#0000b9;fill-opacity:1"
     d="m 242.97,3.87 v 10.78 h 36.91 l -39.73,55.47 h 62.07 V 59.34 H 262.59 L 302.22,3.87 Z"
     id="path985" /><path
     id="path983"
     style="fill:#0000b9;fill-opacity:1"
     d="m 342.15039,3 c -24.38,0 -36.14062,17.289609 -36.14062,34.099609 0,18.07 13.41,33.900391 35.75,33.900391 23.31,0 36.52929,-16.029609 36.52929,-34.099609 C 378.28906,18.060391 364.01039,3 342.15039,3 Z m 0.0996,11.560547 c 14.96,0 22.92969,11.369844 22.92969,22.339844 0,14.67 -10.30055,22.539062 -23.31055,22.539062 -12.63,0 -22.72851,-9.129844 -22.72852,-22.339844 -0.01,-12.83 8.62938,-22.539062 23.10938,-22.539062 z" /><path
     style="fill:#0000b9;fill-opacity:1"
     d="m 389.75,3.87 v 66.25 h 12.53 V 23.69 l 40.8,46.43 h 11.27 V 3.87 H 441.82 V 50.6 L 400.73,3.87 Z"
     id="path979" /><path
     style="fill:#0000b9;fill-opacity:1"
     d="m 487.57,3 c -12.82,0 -20.89,7.58 -20.89,17.39 0,9.71 6.31,14.86 14.86,19.72 12.05,6.51 13.31,9.13 13.31,13.11 0,4.18 -3.5,7.48 -9.23,7.48 -6.41,0 -12.73,-3.01 -18.55,-8.94 V 65.17 C 473,68.86 479.8,71 486.69,71 c 12.43,0 20.98,-7.58 20.98,-18.17 0,-10.01 -5.34,-14.77 -17.87,-21.66 -9.23,-5.05 -10.49,-7.77 -10.49,-11.17 0,-3.98 3.11,-6.8 8.84,-6.8 5.93,0 11.56,2.53 16.81,7.09 V 7.95 C 500.1,4.85 493.98,3 487.57,3"
     id="path826" /></g><rect
   x="527.06"
   y="0"
   class="st0"
   width="507.07999"
   height="68"
   id="rect830"
   style="fill:#0000b9;fill-opacity:1" />
</svg>
