<?xml version="1.0" encoding="UTF-8" standalone="no"?>
<svg
   id="Calque_1"
   width="800"
   height="536.73303"
   version="1.1"
   viewBox="0 0 800.00002 536.73305"
   sodipodi:docname="Logo Les Républicains - 2023.svg"
   inkscape:version="1.2 (dc2aeda, 2022-05-15)"
   xmlns:inkscape="http://www.inkscape.org/namespaces/inkscape"
   xmlns:sodipodi="http://sodipodi.sourceforge.net/DTD/sodipodi-0.dtd"
   xmlns="http://www.w3.org/2000/svg"
   xmlns:svg="http://www.w3.org/2000/svg">
  <sodipodi:namedview
     id="namedview185"
     pagecolor="#ffffff"
     bordercolor="#000000"
     borderopacity="0.25"
     inkscape:showpageshadow="2"
     inkscape:pageopacity="0.0"
     inkscape:pagecheckerboard="0"
     inkscape:deskcolor="#d1d1d1"
     showgrid="false"
     inkscape:zoom="0.10393401"
     inkscape:cx="986.20269"
     inkscape:cy="832.25885"
     inkscape:window-width="1463"
     inkscape:window-height="917"
     inkscape:window-x="0"
     inkscape:window-y="25"
     inkscape:window-maximized="0"
     inkscape:current-layer="Calque_1" />
  <defs
     id="defs134">
    <style
       id="style132"> .st0 { fill: #e02d2d; } .st1 { fill: #0047af; } </style>
  </defs>
  <g
     id="g142"
     transform="matrix(0.32378177,0,0,0.32378177,-100.1457,-53.715394)">
    <path
       class="st1"
       d="m 1556.1,723.2 h 44 c 113.5,0 176,-63.1 176,-177.7 0,-114.6 -65.7,-155.9 -206.6,-155.9 H 1556 v -89.1 h 72.7 c 68.9,0 138.8,21.9 191.8,60 44.1,31.7 96.6,89.5 96.6,184.9 0,95.4 -21.3,208.4 -217.5,258.5 l 263.5,389.5 -121.8,42 L 1556,814.9 v -91.8 z"
       id="path136" />
    <rect
       class="st0"
       x="1407.5"
       y="165.89999"
       width="148.89999"
       height="1170"
       id="rect138" />
    <rect
       class="st1"
       x="1141.7"
       y="299.89999"
       width="148.8"
       height="914.29999"
       id="rect140" />
  </g>
  <g
     id="g150"
     transform="matrix(0.32378177,0,0,0.32378177,-100.1457,-53.715394)">
    <path
       class="st1"
       d="m 314.1,1043.1 h 21 v 283.1 h 138.7 v 18.1 H 314 v -301.2 z"
       id="path144" />
    <path
       class="st1"
       d="m 502.2,1235 c 0,-71.6 46.5,-115.6 95.7,-115.6 49.2,0 84,37 84,101.5 0,64.5 -0.2,11 -1.1,16.5 H 523 c 0.7,55.4 33.2,95 82.6,95 49.4,0 42.5,-7.9 59,-19.5 l 8.3,15.4 c -17.3,10.8 -37,21.6 -69.2,21.6 -56,0 -101.5,-43 -101.5,-114.8 z m 160.6,-14.3 c 0,-56 -25.4,-83.9 -64.8,-83.9 -39.4,0 -70.7,31.4 -75.2,83.9 z"
       id="path146" />
    <path
       class="st1"
       d="m 714,1319.4 11.7,-14.7 c 18.6,15.5 38.5,27.8 69.7,27.8 31.2,0 52.5,-20.2 52.5,-43.3 0,-23.1 -28.4,-39.6 -53.7,-48.7 -33.1,-11.7 -69.9,-25.2 -69.9,-62.7 0,-37.5 25,-58.4 70.7,-58.4 45.7,0 46.7,9.7 62.7,22.8 l -10.9,14.5 c -14.8,-11.1 -30.4,-20 -52.4,-20 -34.2,0 -49.7,19.7 -49.7,39.9 0,25 25.9,34.5 52,44.4 34,12.9 71.7,24.1 71.7,66.9 0,42.8 -26.4,61.9 -73.9,61.9 -47.5,0 -60.8,-13.6 -80.4,-30.3 z"
       id="path148" />
  </g>
  <g
     id="g182"
     transform="matrix(0.32378177,0,0,0.32378177,-100.1457,-53.715394)">
    <path
       class="st1"
       d="m 520,1524.5 c 0,-66.7 -47.9,-88.7 -110,-88.7 H 309.3 v 298.9 h 53 v -116.8 h 45.5 l 64.3,116.8 h 59.6 l -71.5,-124.5 c 35.9,-12.5 59.8,-40.3 59.8,-85.7 z m -157.8,-46.3 h 42.2 c 40.9,0 63.2,11.9 63.2,46.2 0,34.3 -22.3,51 -63.2,51 h -42.2 z"
       id="path152" />
    <path
       class="st1"
       d="m 659.2,1504.8 c -52.8,0 -103.5,45 -103.5,117.9 0,72.9 48.6,117.5 110.6,117.5 62,0 55.6,-9.9 77,-24.3 l -17.9,-32.7 c -16.5,10.2 -32.9,16.3 -52.1,16.3 -36.2,0 -61.8,-22.7 -66.2,-62.5 h 142.5 c 1.2,-5.5 2.3,-15.5 2.3,-25.6 0,-62.7 -32,-106.6 -92.7,-106.6 z m -52.6,96.3 c 4.6,-36 27.6,-55.6 53.7,-55.6 26.1,0 46.1,21 46.1,55.6 z"
       id="path154" />
    <path
       class="st1"
       d="m 918.5,1504.8 c -24.7,0 -48.7,13.2 -67.6,29.4 h -1.5 l -4,-23.9 h -43.1 v 313.3 h 52.6 v -70.7 l -1.6,-37.3 c 18.3,15.7 37.8,24.7 57.8,24.7 49.9,0 95.8,-44.4 95.8,-121.2 0,-76.8 -32.2,-114.2 -88.3,-114.2 z m -18.6,191.9 c -13,0 -28.9,-4.9 -45,-18.6 v -104.6 c 17.4,-17 32.7,-25.2 49,-25.2 34.2,0 48.8,26.5 48.8,71.3 0,44.8 -22.8,77.1 -52.8,77.1 z"
       id="path156" />
    <path
       class="st1"
       d="m 1194.7,1664 c -17,21.9 -30,31.1 -49.7,31.1 -19.7,0 -34.9,-13.9 -34.9,-50.8 v -134 h -52.6 v 140.8 c 0,56.7 21,89.2 69.1,89.2 48.1,0 52.5,-15.2 72.2,-38.6 h 1.5 l 4,33.1 h 43.1 v -224.5 h -52.6 V 1664 Z"
       id="path158" />
    <path
       class="st1"
       d="m 1430.1,1504.8 c -23,0 -46.1,11.5 -64.8,28 l 1.5,-37.3 V 1412 h -52.6 v 322.8 h 41.5 l 4.6,-23.6 h 1.5 c 18.8,18.6 40.8,29.1 61.2,29.1 49.9,0 95.8,-44.4 95.8,-121.5 0,-77.1 -32.4,-114 -88.6,-114 z m -18.4,191.9 c -13,0 -29.2,-4.9 -45,-18.6 v -104.6 c 17,-17 32.7,-25.2 49,-25.2 34.2,0 48.8,26.5 48.8,71.3 0,44.8 -22.8,77.1 -52.8,77.1 z"
       id="path160" />
    <path
       class="st1"
       d="m 1632.6,1697.2 c -5.5,0 -11.3,-4.6 -11.3,-17.5 v -267.8 h -52.6 V 1677 c 0,39.1 13.7,63.2 51,63.2 37.3,0 21.4,-2 27.8,-4.6 l -6.6,-39.3 c -4,0.9 -5.8,0.9 -8.2,0.9 z"
       id="path162" />
    <path
       class="st1"
       d="m 1719,1411.3 c -18.6,0 -32.5,12.1 -32.5,29.8 0,17.7 13.9,29.8 32.5,29.8 18.6,0 32.5,-12.4 32.5,-29.8 0,-17.4 -13.9,-29.8 -32.5,-29.8 z"
       id="path164" />
    <rect
       class="st1"
       x="1692.5"
       y="1510.2"
       width="52.599998"
       height="224.5"
       id="rect166" />
    <path
       class="st1"
       d="m 1911.1,1697.2 c -34.9,0 -59.6,-29.6 -59.6,-74.6 0,-45 25,-74.9 61.2,-74.9 36.2,0 25.4,6 37.3,16.5 l 25.6,-34.2 c -16.3,-14.3 -37.1,-25.2 -65.6,-25.2 -59.8,0 -112.6,43.1 -112.6,117.9 0,74.8 47,117.5 108.2,117.5 61.2,0 52.3,-9 73.3,-27.6 l -21.4,-34.7 c -12.8,10.8 -28.9,19.4 -46.4,19.4 z"
       id="path168" />
    <path
       class="st1"
       d="m 2107.6,1504.8 c -35.6,0 -67.5,13.9 -92.1,29.4 l 19.4,35.1 c 19.7,-12.1 40.8,-22.1 63.1,-22.1 22.3,0 40,20.1 40.8,44.2 -92.1,9.9 -132,34.9 -132,83 0,48.1 27.1,65.8 66.4,65.8 39.3,0 49.5,-13.2 69.6,-30.3 h 1.5 l 4,24.9 h 43.1 v -132.9 c 0,-62.5 -27.6,-97.1 -83.7,-97.1 z m 31.1,169.8 c -16.6,15.4 -30.5,24.3 -48.8,24.3 -18.3,0 -32.4,-8.7 -32.4,-28.5 0,-19.8 20.3,-38.6 81.2,-46.2 v 50.5 z"
       id="path170" />
    <path
       class="st1"
       d="m 2281.1,1411.3 c -18.6,0 -32.5,12.1 -32.5,29.8 0,17.7 13.9,29.8 32.5,29.8 18.6,0 32.5,-12.4 32.5,-29.8 0,-17.4 -13.9,-29.8 -32.5,-29.8 z"
       id="path172" />
    <rect
       class="st1"
       x="2254.5"
       y="1510.2"
       width="52.599998"
       height="224.5"
       id="rect174" />
    <path
       class="st1"
       d="m 2496.6,1504.8 c -30.7,0 -53.6,16.3 -73.7,35.8 h -1.5 l -4,-30.3 h -43.1 v 224.5 h 52.6 V 1578 c 18.5,-18.3 31.4,-28 51.2,-28 19.8,0 34.9,13.9 34.9,50.8 v 134 h 52.6 V 1594 c 0,-56.7 -21,-89.2 -69.1,-89.2 z"
       id="path176" />
    <path
       class="st1"
       d="m 2715.7,1602.7 c -24.3,-9 -47,-15.7 -47,-33.5 0,-17.8 10.7,-24.9 33.3,-24.9 22.6,0 33.5,8 49.2,19.6 l 24.1,-32.4 c -18.3,-14.2 -43.3,-26.9 -74.6,-26.9 -50.3,0 -81.7,28.2 -81.7,67.1 0,38.9 33.6,54.4 63.1,65.4 23.9,9.1 48.3,17.5 48.3,36.4 0,18.9 -11.5,26.9 -36,26.9 -24.5,0 -42,-9.5 -62,-25 l -24.5,33.5 c 21.9,18.1 54.3,31.3 85,31.3 56.7,0 87.2,-31.1 87.2,-69.6 0,-38.5 -34,-56.5 -64.3,-67.8 z"
       id="path178" />
    <polygon
       class="st1"
       points="596.7,1464.7 594.7,1490.4 719.5,1472.1 721.8,1443.8 "
       id="polygon180" />
  </g>
</svg>
