<svg xmlns="http://www.w3.org/2000/svg" viewBox="0 0 300 149"><path fill="#fff100" d="M0 54h267.6v17.8H0zm0 77.2h299.7V149H0z"/><path fill="#231f20" d="M14.5 55.5v16.4H4.9V22.6h9.7l1 2.5c2.7-2.2 6.5-3.1 9.3-3.1 12.2 0 18.4 8 18.4 19 0 11.8-7.4 19-18.4 19-4.5 0-7.9-1.7-10.4-4.5zM13.8 41c0 5.8 3.9 11 10.3 11 6.8 0 9.4-5.4 9.4-11 0-5.8-3.1-11-9.4-11-6.7 0-10.3 5.1-10.3 11zm36.1 18.4V10.1h9.7v49.3h-9.7zm41.2 0s-1.7-.6-1.8-3.3c-2.6 3.8-8.4 4-9.1 4C75.6 60 66 59.4 66 49c0-11.9 11-12.4 17.3-12.4 5.5 0 6-1.9 6-2.6 0-1.5-.9-4-6-4-3.1 0-6.1 1.2-8.6 3.5l-6.1-4.9C71.8 24 77.9 22 83.2 22c10.2 0 15.1 5.7 15.1 12.3v21.9c0 1.9 1.1 3.1 1.1 3.1h-8.3zm-1.9-17.1s-2.6 1.4-7.2 1.5c-4.3.1-6.5 1.7-6.5 4.7 0 2.7 2.1 4.6 5.6 4.6 4 0 8.1-1.9 8.1-6.5v-4.3zm43.2 5.2l8.2 4.2c-4.1 5.8-8.9 8.3-16.1 8.3-11.3 0-19.2-8.5-19.2-19 0-9.7 6.5-19 19.2-19 7.7 0 12.4 2.7 16.1 8.6l-8.4 4c-1.6-2.7-4-4.5-7.7-4.5-6 0-9.6 5.1-9.6 10.9 0 5.8 3.3 11 9.6 11 3.5-.1 6.2-1.8 7.9-4.5zm38 .2l7.4 3.8c-3.2 5.1-8.9 8.5-16 8.5-12.2 0-18.5-8.5-18.5-19 0-9.7 5.4-19 18.5-19 12.2 0 18.5 9.4 18.5 19v3.7h-27.7c.9 4.4 3.7 7.2 9.2 7.2 4.5 0 7.1-1.6 8.6-4.2zm-17.5-11h17.8c-1.2-3.8-3.9-6.6-8.9-6.6s-7.6 2.7-8.9 6.6zM14.5 132.7V149H4.9V99.8h9.7l1 2.5c2.7-2.2 6.5-3.1 9.3-3.1 12.2 0 18.4 8 18.4 19 0 11.8-7.4 19-18.4 19-4.5 0-7.9-1.7-10.4-4.5zm-.7-14.6c0 5.8 3.9 11 10.3 11 6.8 0 9.4-5.4 9.4-11 0-5.8-3.1-11-9.4-11-6.7.1-10.3 5.2-10.3 11zM49.2 99.8h9.7v22.6c0 2.7.5 6.9 6.2 6.9 5.6 0 9.2-3.8 9.2-11.4V99.8H84v36.7h-9.7l-1.5-3.2c-1.7 1.7-4.7 3.8-9 3.8-7.8 0-14.6-2.4-14.6-14.7V99.8zM131.5 118.2c0 11-6.3 19-18.4 19-2.8 0-6.6-.9-9.3-3.1l-1 2.5h-9.7V87.2h9.7v16.5c2.5-2.8 5.9-4.5 10.3-4.5 11 0 18.4 7.2 18.4 19zm-9.7 0c0-5.6-2.6-11-9.4-11-6.5 0-10.3 5.1-10.3 11s3.6 11 10.3 11c6.4 0 9.4-5.2 9.4-11zm16.4 18.3V87.2h9.7v49.3h-9.7zM156.4 96.3v-9.1h10.1v9.1h-10.1zm.2 40.2V99.8h9.7v36.7h-9.7zM173 118.1c0-11 6.3-19 18.4-19 2.8 0 6.6.9 9.3 3.1l1-2.5h9.7V149h-9.7v-16.4c-2.5 2.8-5.9 4.5-10.3 4.5-11.1.1-18.4-7.2-18.4-19zm9.6 0c0 5.6 2.6 11 9.4 11 6.5 0 10.3-5.1 10.3-11 0-5.8-3.6-11-10.3-11-6.3.1-9.4 5.2-9.4 11zM219.7 99.8h9.7v22.6c0 2.7.5 6.9 6.2 6.9 5.6 0 9.2-3.8 9.2-11.4V99.8h9.7v36.7h-9.7l-1.5-3.2c-1.7 1.7-4.7 3.8-9 3.8-7.8 0-14.6-2.4-14.6-14.7V99.8zM288.2 124.9l7.4 3.8c-3.2 5.1-8.9 8.5-16 8.5-12.2 0-18.5-8.5-18.5-19 0-9.7 5.4-19 18.5-19 12.2 0 18.5 9.4 18.5 19v3.7h-27.7c.9 4.4 3.7 7.2 9.2 7.2 4.4 0 7.1-1.7 8.6-4.2zm-17.6-11.1h17.8c-1.2-3.8-3.9-6.6-8.9-6.6-4.9 0-7.6 2.7-8.9 6.6z"/></svg>