<?xml version="1.0" encoding="UTF-8" standalone="no"?>
<!-- Created with Inkscape (http://www.inkscape.org/) -->

<svg
   version="1.1"
   id="svg132"
   width="793.70135"
   height="314.63199"
   viewBox="0 0 793.70135 314.63199"
   sodipodi:docname="Logo Parti Socialiste - 2024.svg"
   inkscape:version="1.2 (dc2aeda, 2022-05-15)"
   xmlns:inkscape="http://www.inkscape.org/namespaces/inkscape"
   xmlns:sodipodi="http://sodipodi.sourceforge.net/DTD/sodipodi-0.dtd"
   xmlns="http://www.w3.org/2000/svg"
   xmlns:svg="http://www.w3.org/2000/svg">
  <defs
     id="defs200" />
  <sodipodi:namedview
     id="namedview198"
     pagecolor="#ffffff"
     bordercolor="#000000"
     borderopacity="0.25"
     inkscape:showpageshadow="2"
     inkscape:pageopacity="0.0"
     inkscape:pagecheckerboard="0"
     inkscape:deskcolor="#d1d1d1"
     showgrid="false"
     inkscape:zoom="0.42490793"
     inkscape:cx="754.28105"
     inkscape:cy="415.3841"
     inkscape:window-width="1463"
     inkscape:window-height="917"
     inkscape:window-x="0"
     inkscape:window-y="25"
     inkscape:window-maximized="0"
     inkscape:current-layer="svg132" />
  <path
     d="M 0,314.632 H 793.69998 V -0.00132547 H 0 Z"
     style="fill:#f70059;fill-opacity:1;stroke-width:1.33333"
     id="path142" />
  <g
     id="g583">
    <path
       d="m 290.63453,162.55827 c -0.22,-0.22 -0.32934,-0.484 -0.32934,-0.80133 V 98.196939 c 0,-0.313334 0.10934,-0.577334 0.32934,-0.797334 0.22,-0.22 0.484,-0.330666 0.79733,-0.330666 h 11.00133 c 0.31334,0 0.58134,0.110666 0.80134,0.330666 0.22,0.22 0.33066,0.484 0.33066,0.797334 v 52.844001 c 0,0.31333 0.15467,0.47066 0.46667,0.47066 h 30.748 c 0.312,0 0.57733,0.11067 0.8,0.32667 0.21733,0.22 0.33066,0.488 0.33066,0.80133 v 9.11734 c 0,0.31733 -0.11333,0.58133 -0.33066,0.80133 -0.22267,0.22 -0.488,0.32933 -0.8,0.32933 h -43.348 c -0.31333,0 -0.57733,-0.10933 -0.79733,-0.32933"
       style="fill:#ffffff;fill-opacity:1;stroke-width:1.33333"
       id="path158" />
    <path
       d="m 356.31186,130.73027 c -0.25067,0.81467 -0.47067,1.81867 -0.66,3.008 0,0.316 0.15467,0.47067 0.47067,0.47067 h 16.268 c 0.37466,0 0.49733,-0.15467 0.37466,-0.47067 -0.31333,-1.816 -0.468,-2.69467 -0.468,-2.63333 -0.56666,-1.88 -1.55333,-3.33734 -2.96266,-4.372 -1.412,-1.03467 -3.152,-1.54934 -5.22,-1.54934 -3.94934,0 -6.552,1.848 -7.80267,5.54667 m 30.088,11.00133 c -0.0627,0.74934 -0.472,1.128 -1.224,1.128 h -29.05333 c -0.37734,0 -0.50134,0.15734 -0.37734,0.47067 0.188,1.25467 0.532,2.50533 1.03734,3.76 1.62933,3.51333 4.94933,5.26533 9.964,5.26533 4.01066,-0.0613 7.18,-1.69066 9.5,-4.88666 0.248,-0.37867 0.52933,-0.568 0.84533,-0.568 0.18533,0 0.40533,0.128 0.656,0.37866 l 6.772,6.67467 c 0.312,0.312 0.47067,0.59733 0.47067,0.84533 0,0.12667 -0.128,0.37867 -0.37867,0.75334 -2.06933,2.57066 -4.732,4.56 -7.99067,5.96933 -3.26133,1.41333 -6.83333,2.11733 -10.72,2.11733 -5.39333,0 -9.95066,-1.224 -13.68,-3.66666 -3.732,-2.444 -6.40933,-5.86134 -8.03866,-10.24934 -1.316,-3.13466 -1.976,-7.24266 -1.976,-12.31866 0,-3.444 0.47066,-6.48534 1.412,-9.11867 1.44,-4.45067 3.964,-7.99467 7.56933,-10.62667 3.60533,-2.63333 7.88,-3.94933 12.83333,-3.94933 6.26934,0 11.29734,1.81867 15.092,5.45467 3.79067,3.636 6.09734,8.492 6.912,14.57333 0.37467,2.384 0.49734,5.048 0.37467,7.99333"
       style="fill:#ffffff;fill-opacity:1;stroke-width:1.33333"
       id="path162" />
    <path
       d="m 446.38786,124.19614 c 1.75333,-1.66 2.63333,-3.83867 2.63333,-6.53733 0,-2.756 -0.88,-4.98 -2.63333,-6.67467 -1.756,-1.69067 -4.076,-2.536 -6.96,-2.536 h -11.94 c -0.31333,0 -0.47067,0.15467 -0.47067,0.46667 v 17.30266 c 0,0.312 0.15734,0.47067 0.47067,0.47067 h 11.94 c 2.884,0 5.204,-0.832 6.96,-2.492 m 5.92133,-24.681333 c 3.13467,1.690663 5.56534,4.086663 7.29067,7.190663 1.72133,3.104 2.584,6.66134 2.584,10.672 0,3.952 -0.89333,7.43067 -2.68,10.43734 -1.788,3.008 -4.29333,5.34533 -7.52,7.00533 -3.232,1.66267 -6.94267,2.492 -11.14267,2.492 h -13.35333 c -0.31333,0 -0.47067,0.15733 -0.47067,0.47067 v 23.976 c 0,0.31333 -0.11066,0.58133 -0.32666,0.80133 -0.22,0.22 -0.488,0.32667 -0.80134,0.32667 h -11.00133 c -0.31333,0 -0.58133,-0.10667 -0.79733,-0.32667 -0.22,-0.22 -0.33067,-0.488 -0.33067,-0.80133 V 98.102807 c 0,-0.313333 0.11067,-0.577333 0.33067,-0.797333 0.216,-0.22 0.484,-0.330667 0.79733,-0.330667 h 26.516 c 4.13867,0 7.772,0.845334 10.90533,2.54"
       style="fill:#ffffff;fill-opacity:1;stroke-width:1.33333"
       id="path166" />
    <path
       d="m 493.11905,151.60387 c 1.88,-1.44 2.82133,-3.292 2.82133,-5.54667 v -3.38666 c 0,-0.312 -0.15733,-0.47067 -0.47066,-0.47067 h -6.77067 c -2.82133,0 -5.028,0.536 -6.62933,1.59867 -1.59867,1.06933 -2.396,2.57066 -2.396,4.51333 0,1.69333 0.59466,3.028 1.78666,3.996 1.18934,0.97333 2.788,1.45733 4.79467,1.45733 2.69467,0 4.984,-0.71733 6.864,-2.16133 m 5.92133,-35.68267 c 3.2,1.40934 5.692,3.33734 7.476,5.78134 1.78667,2.44666 2.68134,5.172 2.68134,8.18 v 31.87733 c 0,0.31333 -0.11067,0.57733 -0.33067,0.79733 -0.22,0.22 -0.484,0.33067 -0.79733,0.33067 h -11.00134 c -0.316,0 -0.58133,-0.11067 -0.80133,-0.33067 -0.22,-0.22 -0.32667,-0.484 -0.32667,-0.79733 v -3.10267 c 0,-0.18933 -0.0653,-0.31333 -0.188,-0.37866 -0.128,-0.0613 -0.252,0 -0.37866,0.18933 -2.63334,3.44667 -6.864,5.172 -12.69334,5.172 -4.88666,0 -8.836,-1.192 -11.84666,-3.57467 -3.008,-2.38133 -4.51334,-5.89066 -4.51334,-10.53066 0,-4.82534 1.69467,-8.568 5.07734,-11.23467 3.38533,-2.664 8.21333,-3.99733 14.48,-3.99733 h 9.592 c 0.31333,0 0.47066,-0.15467 0.47066,-0.468 v -2.06934 c 0,-2.06933 -0.628,-3.68133 -1.88266,-4.84266 -1.25467,-1.15867 -3.13467,-1.73867 -5.64,-1.73867 -1.94267,0 -3.55734,0.344 -4.84267,1.03467 -1.28667,0.69066 -2.11467,1.66 -2.492,2.91466 -0.18933,0.69067 -0.59467,1.00267 -1.224,0.93734 l -11.376,-1.50134 c -0.75333,-0.12666 -1.09733,-0.40933 -1.03467,-0.84933 0.25067,-2.632 1.30267,-5.01067 3.152,-7.14533 1.848,-2.13067 4.292,-3.79067 7.33334,-4.984 3.03866,-1.18934 6.44133,-1.78667 10.20133,-1.78667 4.07333,0 7.70933,0.708 10.90533,2.11733"
       style="fill:#ffffff;fill-opacity:1;stroke-width:1.33333"
       id="path170" />
    <path
       d="m 547.93585,115.216 c 0.50133,0.25067 0.688,0.72133 0.564,1.40933 l -1.97333,10.72 c -0.0653,0.752 -0.50134,0.972 -1.316,0.66 -0.94134,-0.316 -2.03867,-0.47066 -3.29334,-0.47066 -0.50133,0 -1.192,0.0613 -2.068,0.18533 -2.25466,0.18933 -4.16933,1.02 -5.73733,2.49467 -1.56667,1.472 -2.34667,3.43066 -2.34667,5.87466 V 161.76 c 0,0.31333 -0.11066,0.58133 -0.33066,0.79733 -0.22,0.22 -0.488,0.32934 -0.8,0.32934 h -11.00267 c -0.312,0 -0.57733,-0.10934 -0.79733,-0.32934 -0.22,-0.216 -0.32934,-0.484 -0.32934,-0.79733 v -46.07333 c 0,-0.312 0.10934,-0.58 0.32934,-0.8 0.22,-0.21734 0.48533,-0.33067 0.79733,-0.33067 h 11.00267 c 0.312,0 0.58,0.11333 0.8,0.33067 0.22,0.22 0.33066,0.488 0.33066,0.8 v 3.57066 c 0,0.18934 0.0613,0.31734 0.18534,0.37867 0.12666,0.0613 0.22,0.0307 0.28133,-0.096 2.57067,-3.76 6.01867,-5.64 10.34533,-5.64 2.25467,0 4.04267,0.44 5.35867,1.316"
       style="fill:#ffffff;fill-opacity:1;stroke-width:1.33333"
       id="path174" />
    <path
       d="m 582.48972,124.85374 c -0.22,0.22 -0.488,0.32933 -0.80133,0.32933 h -9.02534 c -0.312,0 -0.47066,0.15467 -0.47066,0.472 v 19.93067 c 0,2.06933 0.42666,3.60533 1.272,4.60933 0.84533,1.00267 2.20933,1.50134 4.08933,1.50134 h 3.104 c 0.31333,0 0.57733,0.11066 0.79733,0.33066 0.22,0.22 0.33067,0.488 0.33067,0.8 v 8.93334 c 0,0.69066 -0.37867,1.096 -1.128,1.22 -2.636,0.124 -4.516,0.18933 -5.644,0.18933 -5.20267,0 -9.09067,-0.86 -11.65733,-2.58533 -2.572,-1.72534 -3.888,-4.96934 -3.94934,-9.73334 v -25.196 c 0,-0.31733 -0.15866,-0.472 -0.47066,-0.472 h -5.35867 c -0.316,0 -0.58133,-0.10933 -0.80133,-0.32933 -0.22,-0.22 -0.32934,-0.484 -0.32934,-0.80133 v -8.36534 c 0,-0.312 0.10934,-0.58133 0.32934,-0.8 0.22,-0.21733 0.48533,-0.33066 0.80133,-0.33066 h 5.35867 c 0.312,0 0.47066,-0.15467 0.47066,-0.468 v -11.19067 c 0,-0.312 0.10667,-0.57733 0.32934,-0.79733 0.21733,-0.22 0.48533,-0.32934 0.79733,-0.32934 h 10.532 c 0.312,0 0.57733,0.10934 0.79733,0.32934 0.22,0.22 0.32934,0.48533 0.32934,0.79733 v 11.19067 c 0,0.31333 0.15866,0.468 0.47066,0.468 h 9.02534 c 0.31333,0 0.58133,0.11333 0.80133,0.33066 0.22,0.21867 0.32933,0.488 0.32933,0.8 v 8.36534 c 0,0.31733 -0.10933,0.58133 -0.32933,0.80133"
       style="fill:#ffffff;fill-opacity:1;stroke-width:1.33333"
       id="path178" />
    <path
       d="m 591.51505,162.55827 c -0.22,-0.22 -0.32933,-0.484 -0.32933,-0.80133 V 115.5916 c 0,-0.31333 0.10933,-0.57733 0.32933,-0.80133 0.22,-0.216 0.484,-0.32533 0.80134,-0.32533 h 11.00133 c 0.30933,0 0.57733,0.10933 0.79733,0.32533 0.22,0.224 0.32933,0.488 0.32933,0.80133 v 46.16534 c 0,0.31733 -0.10933,0.58133 -0.32933,0.80133 -0.22,0.22 -0.488,0.32933 -0.79733,0.32933 h -11.00133 c -0.31734,0 -0.58134,-0.10933 -0.80134,-0.32933 m 1.12667,-55.56933 c -1.408,-1.40933 -2.11333,-3.18 -2.11333,-5.31333 0,-2.193338 0.688,-3.980005 2.06933,-5.358671 1.37867,-1.378667 3.16533,-2.069333 5.35867,-2.069333 2.19199,0 3.97999,0.690666 5.36133,2.069333 1.37466,1.378666 2.06533,3.165333 2.06533,5.358671 0,2.13333 -0.704,3.904 -2.11333,5.31333 -1.41334,1.40933 -3.18267,2.11733 -5.31333,2.11733 -2.132,0 -3.90134,-0.708 -5.31467,-2.11733"
       style="fill:#ffffff;fill-opacity:1;stroke-width:1.33333"
       id="path182" />
    <path
       d="m 297.73373,241.02267 c -3.13467,-1.18933 -5.564,-2.85333 -7.28667,-4.984 -1.72533,-2.13067 -2.588,-4.544 -2.588,-7.23867 v -0.94133 c 0,-0.312 0.11067,-0.57733 0.33067,-0.79733 0.22,-0.22 0.484,-0.32934 0.8,-0.32934 h 10.43467 c 0.31333,0 0.58133,0.10934 0.80133,0.32934 0.216,0.22 0.32933,0.48533 0.32933,0.79733 v 0.096 c 0,1.37867 0.76667,2.55467 2.30267,3.524 1.53733,0.972 3.46133,1.46 5.78133,1.46 2.13067,0 3.856,-0.42667 5.17334,-1.272 1.316,-0.84533 1.976,-1.89333 1.976,-3.148 0,-1.13067 -0.56667,-1.976 -1.69467,-2.54 -1.12667,-0.564 -2.976,-1.15867 -5.54667,-1.78667 -2.94666,-0.75333 -5.26666,-1.472 -6.95733,-2.16266 -4.01467,-1.37734 -7.21067,-3.072 -9.592,-5.076 -2.38267,-2.00667 -3.572,-4.89067 -3.572,-8.65067 0,-4.64 1.80133,-8.32133 5.404,-11.05067 3.60533,-2.72533 8.38533,-4.08933 14.33867,-4.08933 4.01466,0 7.524,0.64533 10.53066,1.928 3.01067,1.28533 5.34534,3.08933 7.00534,5.40667 1.66266,2.32 2.49466,4.952 2.49466,7.89733 0,0.31733 -0.10933,0.58133 -0.32933,0.80133 -0.22,0.22 -0.488,0.32667 -0.80133,0.32667 h -10.06 c -0.31334,0 -0.58134,-0.10667 -0.79734,-0.32667 -0.224,-0.22 -0.32933,-0.484 -0.32933,-0.80133 0,-1.37733 -0.70533,-2.536 -2.11733,-3.47733 -1.40934,-0.94267 -3.276,-1.40934 -5.596,-1.40934 -2.06534,0 -3.76,0.37467 -5.076,1.12667 -1.31734,0.75333 -1.97334,1.788 -1.97334,3.104 0,1.25467 0.64267,2.19333 1.928,2.81867 1.28267,0.62933 3.43067,1.28533 6.44134,1.976 0.68666,0.18933 1.47066,0.392 2.348,0.612 0.876,0.22 1.81733,0.484 2.82133,0.79733 4.45067,1.316 7.96,3.01067 10.53067,5.08 2.57066,2.06533 3.856,5.076 3.856,9.02533 0,4.64 -1.83467,8.25867 -5.50267,10.85734 -3.66667,2.60533 -8.60267,3.904 -14.80667,3.904 -4.20266,0 -7.86666,-0.59734 -11.00133,-1.78667"
       style="fill:#ffffff;fill-opacity:1;stroke-width:1.33333"
       id="path186" />
    <path
       d="m 363.27012,229.64547 c 1.44,-1.25467 2.47467,-2.976 3.104,-5.17333 0.49733,-2.00267 0.752,-4.196 0.752,-6.57734 0,-2.63333 -0.25467,-4.86 -0.752,-6.67866 -0.69067,-2.13067 -1.75733,-3.79067 -3.2,-4.984 -1.44,-1.18934 -3.196,-1.78667 -5.26267,-1.78667 -2.13466,0 -3.904,0.59733 -5.31333,1.78667 -1.40933,1.19333 -2.42933,2.85333 -3.056,4.984 -0.50133,1.50533 -0.752,3.72933 -0.752,6.67866 0,2.81734 0.216,5.01467 0.656,6.57734 0.62533,2.19733 1.67733,3.91866 3.152,5.17333 1.47067,1.25467 3.276,1.88 5.40667,1.88 2.06933,0 3.82133,-0.62533 5.26533,-1.88 m -18.80667,9.12133 c -3.76133,-2.76 -6.332,-6.52 -7.70933,-11.28266 -0.87733,-2.94667 -1.31733,-6.14267 -1.31733,-9.58934 0,-3.69866 0.44,-7.02266 1.31733,-9.97066 1.44,-4.63734 4.04533,-8.27334 7.80533,-10.90667 3.76,-2.632 8.272,-3.948 13.53734,-3.948 5.13866,0 9.528,1.30267 13.164,3.9 3.63733,2.60533 6.208,6.22533 7.71333,10.86133 1,3.13467 1.50133,6.42667 1.50133,9.87467 0,3.38533 -0.436,6.55067 -1.316,9.496 -1.37866,4.888 -3.932,8.73067 -7.66133,11.51733 -3.732,2.79067 -8.228,4.18267 -13.49333,4.18267 -5.26534,0 -9.77867,-1.37467 -13.54134,-4.13467"
       style="fill:#ffffff;fill-opacity:1;stroke-width:1.33333"
       id="path190" />
    <path
       d="m 397.26039,239.14267 c -3.66667,-2.50533 -6.28667,-5.956 -7.85067,-10.34133 -1.068,-3.13467 -1.60133,-6.83334 -1.60133,-11.09467 0,-4.2 0.53333,-7.83733 1.60133,-10.90933 1.50267,-4.26267 4.104,-7.61734 7.80267,-10.06 3.69867,-2.444 8.05333,-3.668 13.07067,-3.668 5.01466,0 9.41733,1.25466 13.212,3.76 3.79066,2.50933 6.31333,5.67466 7.568,9.5 0.49866,1.50266 0.75333,2.62933 0.75333,3.38266 v 0.188 c 0,0.564 -0.316,0.908 -0.94267,1.03467 l -10.812,1.59867 h -0.18933 c -0.564,0 -0.93867,-0.31334 -1.12667,-0.94134 l -0.28266,-1.50266 c -0.44,-1.62934 -1.412,-2.98 -2.91467,-4.04534 -1.50533,-1.06533 -3.292,-1.59733 -5.36133,-1.59733 -2.004,0 -3.69867,0.50133 -5.076,1.50533 -1.37867,1.00267 -2.352,2.38134 -2.91467,4.13734 -0.69067,1.88 -1.03467,4.45066 -1.03467,7.70933 0,3.26133 0.312,5.82933 0.94134,7.70933 0.564,1.88 1.55066,3.35467 2.95866,4.42 1.41334,1.06534 3.12134,1.59867 5.12534,1.59867 1.94533,0 3.65333,-0.516 5.124,-1.55067 1.47466,-1.03466 2.492,-2.46133 3.06,-4.27866 0.0613,-0.124 0.092,-0.31334 0.092,-0.564 0.0627,-0.0613 0.0933,-0.15467 0.0933,-0.28134 0.0613,-0.75333 0.50133,-1.06533 1.316,-0.94266 l 10.81333,1.69466 c 0.62534,0.124 0.94134,0.468 0.94134,1.032 0,0.504 -0.18934,1.44267 -0.564,2.82134 -1.316,4.2 -3.87334,7.492 -7.664,9.87466 -3.79467,2.38134 -8.16667,3.57067 -13.116,3.57067 -5.01734,0 -9.356,-1.25067 -13.02267,-3.76"
       style="fill:#ffffff;fill-opacity:1;stroke-width:1.33333"
       id="path194" />
    <path
       d="m 440.22839,241.82214 c -0.22,-0.22 -0.32933,-0.484 -0.32933,-0.80134 v -46.16533 c 0,-0.31333 0.10933,-0.57733 0.32933,-0.79733 0.22,-0.22 0.484,-0.32934 0.80133,-0.32934 h 11.00134 c 0.31333,0 0.57733,0.10934 0.79733,0.32934 0.22,0.22 0.33067,0.484 0.33067,0.79733 v 46.16533 c 0,0.31734 -0.11067,0.58134 -0.33067,0.80134 -0.22,0.22 -0.484,0.32933 -0.79733,0.32933 h -11.00134 c -0.31733,0 -0.58133,-0.10933 -0.80133,-0.32933 m 1.12667,-55.56934 c -1.408,-1.40933 -2.11334,-3.18 -2.11334,-5.31333 0,-2.19333 0.688,-3.98 2.06934,-5.35867 1.37866,-1.37866 3.16533,-2.06933 5.35866,-2.06933 2.192,0 3.98,0.69067 5.36134,2.06933 1.37466,1.37867 2.06533,3.16534 2.06533,5.35867 0,2.13333 -0.704,3.904 -2.11333,5.31333 -1.41334,1.40934 -3.18267,2.11334 -5.31334,2.11334 -2.132,0 -3.90133,-0.704 -5.31466,-2.11334"
       style="fill:#ffffff;fill-opacity:1;stroke-width:1.33333"
       id="path198" />
    <path
       d="m 487.75879,230.868 c 1.88,-1.44 2.82133,-3.292 2.82133,-5.54667 v -3.38666 c 0,-0.312 -0.15733,-0.47067 -0.47066,-0.47067 h -6.77067 c -2.82133,0 -5.032,0.536 -6.62933,1.59867 -1.59867,1.06933 -2.396,2.57066 -2.396,4.51333 0,1.69333 0.59466,3.028 1.78666,3.996 1.18934,0.97333 2.788,1.45733 4.79467,1.45733 2.69467,0 4.984,-0.71733 6.864,-2.16133 m 5.92133,-35.68267 c 3.2,1.40934 5.692,3.33734 7.476,5.78134 1.788,2.44666 2.68134,5.172 2.68134,8.18 V 241.024 c 0,0.31333 -0.11067,0.57733 -0.33067,0.79733 -0.22,0.22 -0.484,0.33067 -0.79733,0.33067 h -11.00134 c -0.316,0 -0.58133,-0.11067 -0.80133,-0.33067 -0.22,-0.22 -0.32667,-0.484 -0.32667,-0.79733 v -3.10267 c 0,-0.18933 -0.0653,-0.31333 -0.188,-0.37866 -0.128,-0.0613 -0.252,0 -0.37866,0.18933 -2.63334,3.44667 -6.864,5.172 -12.69334,5.172 -4.88666,0 -8.836,-1.192 -11.84666,-3.57467 -3.008,-2.38133 -4.51334,-5.89066 -4.51334,-10.53066 0,-4.82534 1.69467,-8.568 5.07734,-11.23467 3.38533,-2.664 8.21333,-3.99733 14.48,-3.99733 h 9.592 c 0.31333,0 0.47066,-0.15467 0.47066,-0.468 v -2.06934 c 0,-2.06933 -0.628,-3.684 -1.88266,-4.84266 -1.25467,-1.15867 -3.13467,-1.73867 -5.64,-1.73867 -1.94267,0 -3.55734,0.344 -4.84267,1.03467 -1.28533,0.68666 -2.11467,1.66 -2.492,2.91466 -0.18933,0.69067 -0.59467,1.00267 -1.22,0.93734 l -11.38,-1.50134 c -0.75333,-0.12666 -1.09733,-0.40933 -1.03467,-0.84933 0.25067,-2.632 1.30267,-5.01067 3.152,-7.14533 1.848,-2.13067 4.292,-3.79067 7.33334,-4.984 3.03866,-1.18934 6.44133,-1.784 10.20133,-1.784 4.07333,0 7.70933,0.70533 10.90533,2.11466"
       style="fill:#ffffff;fill-opacity:1;stroke-width:1.33333"
       id="path202" />
    <path
       d="m 513.47465,241.82214 c -0.22,-0.22 -0.32933,-0.484 -0.32933,-0.80134 v -63.56 c 0,-0.31333 0.10933,-0.57733 0.32933,-0.79733 0.22,-0.22 0.484,-0.33067 0.79734,-0.33067 h 11.00133 c 0.31333,0 0.58133,0.11067 0.80133,0.33067 0.22,0.22 0.33067,0.484 0.33067,0.79733 v 63.56 c 0,0.31734 -0.11067,0.58134 -0.33067,0.80134 -0.22,0.22 -0.488,0.32933 -0.80133,0.32933 h -11.00133 c -0.31334,0 -0.57734,-0.10933 -0.79734,-0.32933"
       style="fill:#ffffff;fill-opacity:1;stroke-width:1.33333"
       id="path206" />
    <path
       d="m 536.79172,241.82214 c -0.22,-0.22 -0.32933,-0.484 -0.32933,-0.80134 v -46.16533 c 0,-0.31333 0.10933,-0.57733 0.32933,-0.79733 0.22,-0.22 0.484,-0.32934 0.80133,-0.32934 h 10.99734 c 0.31333,0 0.58133,0.10934 0.80133,0.32934 0.22,0.22 0.33067,0.484 0.33067,0.79733 v 46.16533 c 0,0.31734 -0.11067,0.58134 -0.33067,0.80134 -0.22,0.22 -0.488,0.32933 -0.80133,0.32933 h -10.99734 c -0.31733,0 -0.58133,-0.10933 -0.80133,-0.32933 m 1.128,-55.56934 c -1.40933,-1.40933 -2.11467,-3.18 -2.11467,-5.31333 0,-2.19333 0.688,-3.98 2.06934,-5.35867 1.37866,-1.37866 3.16533,-2.06933 5.35866,-2.06933 2.192,0 3.98,0.69067 5.35734,2.06933 1.37866,1.37867 2.06933,3.16534 2.06933,5.35867 0,2.13333 -0.704,3.904 -2.11333,5.31333 -1.41334,1.40934 -3.18267,2.11334 -5.31334,2.11334 -2.13066,0 -3.90133,-0.704 -5.31333,-2.11334"
       style="fill:#ffffff;fill-opacity:1;stroke-width:1.33333"
       id="path210" />
    <path
       d="m 568.33652,241.02267 c -3.13467,-1.18933 -5.564,-2.85333 -7.28667,-4.984 -1.72533,-2.13067 -2.584,-4.544 -2.584,-7.23867 v -0.94133 c 0,-0.312 0.10667,-0.57733 0.32667,-0.79733 0.22,-0.22 0.484,-0.32934 0.8,-0.32934 h 10.43467 c 0.316,0 0.58133,0.10934 0.80133,0.32934 0.22,0.22 0.32933,0.48533 0.32933,0.79733 v 0.096 c 0,1.37867 0.76667,2.55467 2.30267,3.524 1.53733,0.972 3.46133,1.46 5.78133,1.46 2.13067,0 3.856,-0.42667 5.17334,-1.272 1.316,-0.84533 1.976,-1.89333 1.976,-3.148 0,-1.13067 -0.56667,-1.976 -1.69467,-2.54 -1.12667,-0.564 -2.976,-1.15867 -5.54667,-1.78667 -2.94933,-0.75333 -5.26666,-1.472 -6.95733,-2.16266 -4.01467,-1.37734 -7.21067,-3.072 -9.592,-5.076 -2.38267,-2.00667 -3.572,-4.89067 -3.572,-8.65067 0,-4.64 1.80133,-8.32133 5.40667,-11.05067 3.60266,-2.72533 8.38266,-4.08933 14.34,-4.08933 4.01066,0 7.52,0.64533 10.52666,1.928 3.01067,1.28533 5.34534,3.08933 7.008,5.40667 1.66,2.32 2.492,4.952 2.492,7.89733 0,0.31733 -0.10933,0.58133 -0.32933,0.80133 -0.22,0.22 -0.488,0.32667 -0.80133,0.32667 h -10.06 c -0.31334,0 -0.58134,-0.10667 -0.79734,-0.32667 -0.22,-0.22 -0.32933,-0.484 -0.32933,-0.80133 0,-1.37733 -0.70533,-2.536 -2.11733,-3.47733 -1.40934,-0.94267 -3.276,-1.40934 -5.592,-1.40934 -2.06934,0 -3.764,0.37467 -5.08,1.12667 -1.31734,0.75333 -1.97334,1.788 -1.97334,3.104 0,1.25467 0.64267,2.19333 1.928,2.81867 1.28267,0.62933 3.43067,1.28533 6.44134,1.976 0.68666,0.18933 1.47066,0.392 2.35066,0.612 0.876,0.22 1.81467,0.484 2.81867,0.79733 4.45067,1.316 7.96,3.01067 10.53067,5.08 2.57066,2.06533 3.856,5.076 3.856,9.02533 0,4.64 -1.832,8.25867 -5.49867,10.85734 -3.668,2.60533 -8.60667,3.904 -14.81067,3.904 -4.2,0 -7.86666,-0.59734 -11.00133,-1.78667"
       style="fill:#ffffff;fill-opacity:1;stroke-width:1.33333"
       id="path214" />
    <path
       d="m 634.57998,204.11787 c -0.22,0.22 -0.488,0.32933 -0.80133,0.32933 h -9.02534 c -0.312,0 -0.47066,0.15467 -0.47066,0.472 v 19.93067 c 0,2.06933 0.42266,3.60533 1.272,4.60933 0.84533,1.00267 2.20666,1.50134 4.08933,1.50134 h 3.10133 c 0.312,0 0.58,0.11066 0.8,0.33066 0.22,0.22 0.33067,0.488 0.33067,0.8 v 8.93334 c 0,0.69066 -0.37867,1.096 -1.13067,1.22 -2.63333,0.124 -4.51333,0.18933 -5.64133,0.18933 -5.20267,0 -9.09067,-0.86 -11.65733,-2.58533 -2.572,-1.72534 -3.89067,-4.96934 -3.95334,-9.73334 v -25.196 c 0,-0.31733 -0.15466,-0.472 -0.46666,-0.472 h -5.36267 c -0.312,0 -0.57733,-0.10933 -0.79733,-0.32933 -0.22,-0.22 -0.32934,-0.484 -0.32934,-0.80133 v -8.36534 c 0,-0.312 0.10934,-0.58133 0.32934,-0.8 0.22,-0.21733 0.48533,-0.33066 0.79733,-0.33066 h 5.36267 c 0.312,0 0.46666,-0.15467 0.46666,-0.468 v -11.19067 c 0,-0.312 0.11067,-0.57733 0.33067,-0.79733 0.22,-0.22 0.488,-0.32934 0.8,-0.32934 h 10.532 c 0.312,0 0.57733,0.10934 0.79733,0.32934 0.22,0.22 0.32934,0.48533 0.32934,0.79733 v 11.19067 c 0,0.31333 0.15866,0.468 0.47066,0.468 h 9.02534 c 0.31333,0 0.58133,0.11333 0.80133,0.33066 0.22,0.21867 0.32933,0.488 0.32933,0.8 v 8.36534 c 0,0.31733 -0.10933,0.58133 -0.32933,0.80133"
       style="fill:#ffffff;fill-opacity:1;stroke-width:1.33333"
       id="path218" />
    <path
       d="m 655.31198,209.9944 c -0.25067,0.81467 -0.47067,1.81867 -0.66,3.008 0,0.316 0.15867,0.47067 0.47067,0.47067 h 16.268 c 0.37733,0 0.50133,-0.15467 0.37733,-0.47067 -0.316,-1.816 -0.47067,-2.69467 -0.47067,-2.63333 -0.564,-1.88 -1.55333,-3.33734 -2.96266,-4.372 -1.40934,-1.03467 -3.148,-1.54934 -5.21734,-1.54934 -3.94933,0 -6.55066,1.848 -7.80533,5.54667 m 30.088,11.00133 c -0.0627,0.75334 -0.472,1.128 -1.22,1.128 h -29.05733 c -0.37467,0 -0.50134,0.15734 -0.37467,0.47067 0.18933,1.25467 0.53333,2.50533 1.03467,3.76 1.62933,3.51333 4.94933,5.26533 9.968,5.26533 4.01066,-0.0613 7.176,-1.69066 9.496,-4.88666 0.248,-0.37867 0.53333,-0.568 0.84533,-0.568 0.18933,0 0.40533,0.128 0.656,0.37866 l 6.772,6.67467 c 0.312,0.316 0.47067,0.59733 0.47067,0.84533 0,0.12667 -0.128,0.37867 -0.37467,0.75334 -2.06933,2.57066 -4.736,4.56 -7.99467,5.96933 -3.25866,1.41333 -6.83333,2.11733 -10.716,2.11733 -5.39333,0 -9.95466,-1.224 -13.684,-3.66666 -3.728,-2.444 -6.40933,-5.86134 -8.03866,-10.24934 -1.316,-3.13466 -1.976,-7.23866 -1.976,-12.31866 0,-3.444 0.47066,-6.48534 1.412,-9.11867 1.44,-4.45067 3.964,-7.99467 7.56933,-10.62667 3.60533,-2.63333 7.884,-3.94933 12.83333,-3.94933 6.26934,0 11.29734,1.81867 15.092,5.45467 3.79067,3.636 6.09734,8.492 6.912,14.57333 0.37467,2.384 0.50134,5.048 0.37467,7.99333"
       style="fill:#ffffff;fill-opacity:1;stroke-width:1.33333"
       id="path222" />
    <path
       d="m 290.63453,162.55827 c -0.22,-0.22 -0.32934,-0.484 -0.32934,-0.80133 V 98.196939 c 0,-0.313334 0.10934,-0.577334 0.32934,-0.797334 0.22,-0.22 0.484,-0.330666 0.79733,-0.330666 h 11.00133 c 0.31334,0 0.58134,0.110666 0.80134,0.330666 0.22,0.22 0.33066,0.484 0.33066,0.797334 v 52.844001 c 0,0.31333 0.15467,0.47066 0.46667,0.47066 h 30.748 c 0.312,0 0.57733,0.11067 0.8,0.32667 0.21733,0.22 0.33066,0.488 0.33066,0.80133 v 9.11734 c 0,0.31733 -0.11333,0.58133 -0.33066,0.80133 -0.22267,0.22 -0.488,0.32933 -0.8,0.32933 h -43.348 c -0.31333,0 -0.57733,-0.10933 -0.79733,-0.32933"
       style="fill:#ffffff;fill-opacity:1;stroke-width:1.33333"
       id="path230" />
    <path
       d="m 356.31186,130.73027 c -0.25067,0.81467 -0.47067,1.81867 -0.66,3.008 0,0.316 0.15467,0.47067 0.47067,0.47067 h 16.268 c 0.37466,0 0.49733,-0.15467 0.37466,-0.47067 -0.31333,-1.816 -0.468,-2.69467 -0.468,-2.63333 -0.56666,-1.88 -1.55333,-3.33734 -2.96266,-4.372 -1.412,-1.03467 -3.152,-1.54934 -5.22,-1.54934 -3.94934,0 -6.552,1.848 -7.80267,5.54667 m 30.088,11.00133 c -0.0627,0.74934 -0.472,1.128 -1.224,1.128 h -29.05333 c -0.37734,0 -0.50134,0.15734 -0.37734,0.47067 0.188,1.25467 0.532,2.50533 1.03734,3.76 1.62933,3.51333 4.94933,5.26533 9.964,5.26533 4.01066,-0.0613 7.18,-1.69066 9.5,-4.88666 0.248,-0.37867 0.52933,-0.568 0.84533,-0.568 0.18533,0 0.40533,0.128 0.656,0.37866 l 6.772,6.67467 c 0.312,0.312 0.47067,0.59733 0.47067,0.84533 0,0.12667 -0.128,0.37867 -0.37867,0.75334 -2.06933,2.57066 -4.732,4.56 -7.99067,5.96933 -3.26133,1.41333 -6.83333,2.11733 -10.72,2.11733 -5.39333,0 -9.95066,-1.224 -13.68,-3.66666 -3.732,-2.444 -6.40933,-5.86134 -8.03866,-10.24934 -1.316,-3.13466 -1.976,-7.24266 -1.976,-12.31866 0,-3.444 0.47066,-6.48534 1.412,-9.11867 1.44,-4.45067 3.964,-7.99467 7.56933,-10.62667 3.60533,-2.63333 7.88,-3.94933 12.83333,-3.94933 6.26934,0 11.29734,1.81867 15.092,5.45467 3.79067,3.636 6.09734,8.492 6.912,14.57333 0.37467,2.384 0.49734,5.048 0.37467,7.99333"
       style="fill:#ffffff;fill-opacity:1;stroke-width:1.33333"
       id="path234" />
    <path
       d="m 446.38786,124.19614 c 1.75333,-1.66 2.63333,-3.83867 2.63333,-6.53733 0,-2.756 -0.88,-4.98 -2.63333,-6.67467 -1.756,-1.69067 -4.076,-2.536 -6.96,-2.536 h -11.94 c -0.31333,0 -0.47067,0.15467 -0.47067,0.46667 v 17.30266 c 0,0.312 0.15734,0.47067 0.47067,0.47067 h 11.94 c 2.884,0 5.204,-0.832 6.96,-2.492 m 5.92133,-24.681333 c 3.13467,1.690663 5.56534,4.086663 7.29067,7.190663 1.72133,3.104 2.584,6.66134 2.584,10.672 0,3.952 -0.89333,7.43067 -2.68,10.43734 -1.788,3.008 -4.29333,5.34533 -7.52,7.00533 -3.232,1.66267 -6.94267,2.492 -11.14267,2.492 h -13.35333 c -0.31333,0 -0.47067,0.15733 -0.47067,0.47067 v 23.976 c 0,0.31333 -0.11066,0.58133 -0.32666,0.80133 -0.22,0.22 -0.488,0.32667 -0.80134,0.32667 h -11.00133 c -0.31333,0 -0.58133,-0.10667 -0.79733,-0.32667 -0.22,-0.22 -0.33067,-0.488 -0.33067,-0.80133 V 98.102807 c 0,-0.313333 0.11067,-0.577333 0.33067,-0.797333 0.216,-0.22 0.484,-0.330667 0.79733,-0.330667 h 26.516 c 4.13867,0 7.772,0.845334 10.90533,2.54"
       style="fill:#ffffff;fill-opacity:1;stroke-width:1.33333"
       id="path238" />
    <path
       d="m 493.11905,151.60387 c 1.88,-1.44 2.82133,-3.292 2.82133,-5.54667 v -3.38666 c 0,-0.312 -0.15733,-0.47067 -0.47066,-0.47067 h -6.77067 c -2.82133,0 -5.028,0.536 -6.62933,1.59867 -1.59867,1.06933 -2.396,2.57066 -2.396,4.51333 0,1.69333 0.59466,3.028 1.78666,3.996 1.18934,0.97333 2.788,1.45733 4.79467,1.45733 2.69467,0 4.984,-0.71733 6.864,-2.16133 m 5.92133,-35.68267 c 3.2,1.40934 5.692,3.33734 7.476,5.78134 1.78667,2.44666 2.68134,5.172 2.68134,8.18 v 31.87733 c 0,0.31333 -0.11067,0.57733 -0.33067,0.79733 -0.22,0.22 -0.484,0.33067 -0.79733,0.33067 h -11.00134 c -0.316,0 -0.58133,-0.11067 -0.80133,-0.33067 -0.22,-0.22 -0.32667,-0.484 -0.32667,-0.79733 v -3.10267 c 0,-0.18933 -0.0653,-0.31333 -0.188,-0.37866 -0.128,-0.0613 -0.252,0 -0.37866,0.18933 -2.63334,3.44667 -6.864,5.172 -12.69334,5.172 -4.88666,0 -8.836,-1.192 -11.84666,-3.57467 -3.008,-2.38133 -4.51334,-5.89066 -4.51334,-10.53066 0,-4.82534 1.69467,-8.568 5.07734,-11.23467 3.38533,-2.664 8.21333,-3.99733 14.48,-3.99733 h 9.592 c 0.31333,0 0.47066,-0.15467 0.47066,-0.468 v -2.06934 c 0,-2.06933 -0.628,-3.68133 -1.88266,-4.84266 -1.25467,-1.15867 -3.13467,-1.73867 -5.64,-1.73867 -1.94267,0 -3.55734,0.344 -4.84267,1.03467 -1.28667,0.69066 -2.11467,1.66 -2.492,2.91466 -0.18933,0.69067 -0.59467,1.00267 -1.224,0.93734 l -11.376,-1.50134 c -0.75333,-0.12666 -1.09733,-0.40933 -1.03467,-0.84933 0.25067,-2.632 1.30267,-5.01067 3.152,-7.14533 1.848,-2.13067 4.292,-3.79067 7.33334,-4.984 3.03866,-1.18934 6.44133,-1.78667 10.20133,-1.78667 4.07333,0 7.70933,0.708 10.90533,2.11733"
       style="fill:#ffffff;fill-opacity:1;stroke-width:1.33333"
       id="path242" />
    <path
       d="m 547.93585,115.216 c 0.50133,0.25067 0.688,0.72133 0.564,1.40933 l -1.97333,10.72 c -0.0653,0.752 -0.50134,0.972 -1.316,0.66 -0.94134,-0.316 -2.03867,-0.47066 -3.29334,-0.47066 -0.50133,0 -1.192,0.0613 -2.068,0.18533 -2.25466,0.18933 -4.16933,1.02 -5.73733,2.49467 -1.56667,1.472 -2.34667,3.43066 -2.34667,5.87466 V 161.76 c 0,0.31333 -0.11066,0.58133 -0.33066,0.79733 -0.22,0.22 -0.488,0.32934 -0.8,0.32934 h -11.00267 c -0.312,0 -0.57733,-0.10934 -0.79733,-0.32934 -0.22,-0.216 -0.32934,-0.484 -0.32934,-0.79733 v -46.07333 c 0,-0.312 0.10934,-0.58 0.32934,-0.8 0.22,-0.21734 0.48533,-0.33067 0.79733,-0.33067 h 11.00267 c 0.312,0 0.58,0.11333 0.8,0.33067 0.22,0.22 0.33066,0.488 0.33066,0.8 v 3.57066 c 0,0.18934 0.0613,0.31734 0.18534,0.37867 0.12666,0.0613 0.22,0.0307 0.28133,-0.096 2.57067,-3.76 6.01867,-5.64 10.34533,-5.64 2.25467,0 4.04267,0.44 5.35867,1.316"
       style="fill:#ffffff;fill-opacity:1;stroke-width:1.33333"
       id="path246" />
    <path
       d="m 582.48972,124.85374 c -0.22,0.22 -0.488,0.32933 -0.80133,0.32933 h -9.02534 c -0.312,0 -0.47066,0.15467 -0.47066,0.472 v 19.93067 c 0,2.06933 0.42666,3.60533 1.272,4.60933 0.84533,1.00267 2.20933,1.50134 4.08933,1.50134 h 3.104 c 0.31333,0 0.57733,0.11066 0.79733,0.33066 0.22,0.22 0.33067,0.488 0.33067,0.8 v 8.93334 c 0,0.69066 -0.37867,1.096 -1.128,1.22 -2.636,0.124 -4.516,0.18933 -5.644,0.18933 -5.20267,0 -9.09067,-0.86 -11.65733,-2.58533 -2.572,-1.72534 -3.888,-4.96934 -3.94934,-9.73334 v -25.196 c 0,-0.31733 -0.15866,-0.472 -0.47066,-0.472 h -5.35867 c -0.316,0 -0.58133,-0.10933 -0.80133,-0.32933 -0.22,-0.22 -0.32934,-0.484 -0.32934,-0.80133 v -8.36534 c 0,-0.312 0.10934,-0.58133 0.32934,-0.8 0.22,-0.21733 0.48533,-0.33066 0.80133,-0.33066 h 5.35867 c 0.312,0 0.47066,-0.15467 0.47066,-0.468 v -11.19067 c 0,-0.312 0.10667,-0.57733 0.32934,-0.79733 0.21733,-0.22 0.48533,-0.32934 0.79733,-0.32934 h 10.532 c 0.312,0 0.57733,0.10934 0.79733,0.32934 0.22,0.22 0.32934,0.48533 0.32934,0.79733 v 11.19067 c 0,0.31333 0.15866,0.468 0.47066,0.468 h 9.02534 c 0.31333,0 0.58133,0.11333 0.80133,0.33066 0.22,0.21867 0.32933,0.488 0.32933,0.8 v 8.36534 c 0,0.31733 -0.10933,0.58133 -0.32933,0.80133"
       style="fill:#ffffff;fill-opacity:1;stroke-width:1.33333"
       id="path250" />
    <path
       d="m 591.51505,162.55827 c -0.22,-0.22 -0.32933,-0.484 -0.32933,-0.80133 V 115.5916 c 0,-0.31333 0.10933,-0.57733 0.32933,-0.80133 0.22,-0.216 0.484,-0.32533 0.80134,-0.32533 h 11.00133 c 0.30933,0 0.57733,0.10933 0.79733,0.32533 0.22,0.224 0.32933,0.488 0.32933,0.80133 v 46.16534 c 0,0.31733 -0.10933,0.58133 -0.32933,0.80133 -0.22,0.22 -0.488,0.32933 -0.79733,0.32933 h -11.00133 c -0.31734,0 -0.58134,-0.10933 -0.80134,-0.32933 m 1.12667,-55.56933 c -1.408,-1.40933 -2.11333,-3.18 -2.11333,-5.31333 0,-2.193338 0.688,-3.980005 2.06933,-5.358671 1.37867,-1.378667 3.16533,-2.069333 5.35867,-2.069333 2.19199,0 3.97999,0.690666 5.36133,2.069333 1.37466,1.378666 2.06533,3.165333 2.06533,5.358671 0,2.13333 -0.704,3.904 -2.11333,5.31333 -1.41334,1.40933 -3.18267,2.11733 -5.31333,2.11733 -2.132,0 -3.90134,-0.708 -5.31467,-2.11733"
       style="fill:#ffffff;fill-opacity:1;stroke-width:1.33333"
       id="path254" />
    <path
       d="m 297.73373,241.02267 c -3.13467,-1.18933 -5.564,-2.85333 -7.28667,-4.984 -1.72533,-2.13067 -2.588,-4.544 -2.588,-7.23867 v -0.94133 c 0,-0.312 0.11067,-0.57733 0.33067,-0.79733 0.22,-0.22 0.484,-0.32934 0.8,-0.32934 h 10.43467 c 0.31333,0 0.58133,0.10934 0.80133,0.32934 0.216,0.22 0.32933,0.48533 0.32933,0.79733 v 0.096 c 0,1.37867 0.76667,2.55467 2.30267,3.524 1.53733,0.972 3.46133,1.46 5.78133,1.46 2.13067,0 3.856,-0.42667 5.17334,-1.272 1.316,-0.84533 1.976,-1.89333 1.976,-3.148 0,-1.13067 -0.56667,-1.976 -1.69467,-2.54 -1.12667,-0.564 -2.976,-1.15867 -5.54667,-1.78667 -2.94666,-0.75333 -5.26666,-1.472 -6.95733,-2.16266 -4.01467,-1.37734 -7.21067,-3.072 -9.592,-5.076 -2.38267,-2.00667 -3.572,-4.89067 -3.572,-8.65067 0,-4.64 1.80133,-8.32133 5.404,-11.05067 3.60533,-2.72533 8.38533,-4.08933 14.33867,-4.08933 4.01466,0 7.524,0.64533 10.53066,1.928 3.01067,1.28533 5.34534,3.08933 7.00534,5.40667 1.66266,2.32 2.49466,4.952 2.49466,7.89733 0,0.31733 -0.10933,0.58133 -0.32933,0.80133 -0.22,0.22 -0.488,0.32667 -0.80133,0.32667 h -10.06 c -0.31334,0 -0.58134,-0.10667 -0.79734,-0.32667 -0.224,-0.22 -0.32933,-0.484 -0.32933,-0.80133 0,-1.37733 -0.70533,-2.536 -2.11733,-3.47733 -1.40934,-0.94267 -3.276,-1.40934 -5.596,-1.40934 -2.06534,0 -3.76,0.37467 -5.076,1.12667 -1.31734,0.75333 -1.97334,1.788 -1.97334,3.104 0,1.25467 0.64267,2.19333 1.928,2.81867 1.28267,0.62933 3.43067,1.28533 6.44134,1.976 0.68666,0.18933 1.47066,0.392 2.348,0.612 0.876,0.22 1.81733,0.484 2.82133,0.79733 4.45067,1.316 7.96,3.01067 10.53067,5.08 2.57066,2.06533 3.856,5.076 3.856,9.02533 0,4.64 -1.83467,8.25867 -5.50267,10.85734 -3.66667,2.60533 -8.60267,3.904 -14.80667,3.904 -4.20266,0 -7.86666,-0.59734 -11.00133,-1.78667"
       style="fill:#ffffff;fill-opacity:1;stroke-width:1.33333"
       id="path258" />
    <path
       d="m 363.27012,229.64547 c 1.44,-1.25467 2.47467,-2.976 3.104,-5.17333 0.49733,-2.00267 0.752,-4.196 0.752,-6.57734 0,-2.63333 -0.25467,-4.86 -0.752,-6.67866 -0.69067,-2.13067 -1.75733,-3.79067 -3.2,-4.984 -1.44,-1.18934 -3.196,-1.78667 -5.26267,-1.78667 -2.13466,0 -3.904,0.59733 -5.31333,1.78667 -1.40933,1.19333 -2.42933,2.85333 -3.056,4.984 -0.50133,1.50533 -0.752,3.72933 -0.752,6.67866 0,2.81734 0.216,5.01467 0.656,6.57734 0.62533,2.19733 1.67733,3.91866 3.152,5.17333 1.47067,1.25467 3.276,1.88 5.40667,1.88 2.06933,0 3.82133,-0.62533 5.26533,-1.88 m -18.80667,9.12133 c -3.76133,-2.76 -6.332,-6.52 -7.70933,-11.28266 -0.87733,-2.94667 -1.31733,-6.14267 -1.31733,-9.58934 0,-3.69866 0.44,-7.02266 1.31733,-9.97066 1.44,-4.63734 4.04533,-8.27334 7.80533,-10.90667 3.76,-2.632 8.272,-3.948 13.53734,-3.948 5.13866,0 9.528,1.30267 13.164,3.9 3.63733,2.60533 6.208,6.22533 7.71333,10.86133 1,3.13467 1.50133,6.42667 1.50133,9.87467 0,3.38533 -0.436,6.55067 -1.316,9.496 -1.37866,4.888 -3.932,8.73067 -7.66133,11.51733 -3.732,2.79067 -8.228,4.18267 -13.49333,4.18267 -5.26534,0 -9.77867,-1.37467 -13.54134,-4.13467"
       style="fill:#ffffff;fill-opacity:1;stroke-width:1.33333"
       id="path262" />
    <path
       d="m 397.26039,239.14267 c -3.66667,-2.50533 -6.28667,-5.956 -7.85067,-10.34133 -1.068,-3.13467 -1.60133,-6.83334 -1.60133,-11.09467 0,-4.2 0.53333,-7.83733 1.60133,-10.90933 1.50267,-4.26267 4.104,-7.61734 7.80267,-10.06 3.69867,-2.444 8.05333,-3.668 13.07067,-3.668 5.01466,0 9.41733,1.25466 13.212,3.76 3.79066,2.50933 6.31333,5.67466 7.568,9.5 0.49866,1.50266 0.75333,2.62933 0.75333,3.38266 v 0.188 c 0,0.564 -0.316,0.908 -0.94267,1.03467 l -10.812,1.59867 h -0.18933 c -0.564,0 -0.93867,-0.31334 -1.12667,-0.94134 l -0.28266,-1.50266 c -0.44,-1.62934 -1.412,-2.98 -2.91467,-4.04534 -1.50533,-1.06533 -3.292,-1.59733 -5.36133,-1.59733 -2.004,0 -3.69867,0.50133 -5.076,1.50533 -1.37867,1.00267 -2.352,2.38134 -2.91467,4.13734 -0.69067,1.88 -1.03467,4.45066 -1.03467,7.70933 0,3.26133 0.312,5.82933 0.94134,7.70933 0.564,1.88 1.55066,3.35467 2.95866,4.42 1.41334,1.06534 3.12134,1.59867 5.12534,1.59867 1.94533,0 3.65333,-0.516 5.124,-1.55067 1.47466,-1.03466 2.492,-2.46133 3.06,-4.27866 0.0613,-0.124 0.092,-0.31334 0.092,-0.564 0.0627,-0.0613 0.0933,-0.15467 0.0933,-0.28134 0.0613,-0.75333 0.50133,-1.06533 1.316,-0.94266 l 10.81333,1.69466 c 0.62534,0.124 0.94134,0.468 0.94134,1.032 0,0.504 -0.18934,1.44267 -0.564,2.82134 -1.316,4.2 -3.87334,7.492 -7.664,9.87466 -3.79467,2.38134 -8.16667,3.57067 -13.116,3.57067 -5.01734,0 -9.356,-1.25067 -13.02267,-3.76"
       style="fill:#ffffff;fill-opacity:1;stroke-width:1.33333"
       id="path266" />
    <path
       d="m 440.22839,241.82214 c -0.22,-0.22 -0.32933,-0.484 -0.32933,-0.80134 v -46.16533 c 0,-0.31333 0.10933,-0.57733 0.32933,-0.79733 0.22,-0.22 0.484,-0.32934 0.80133,-0.32934 h 11.00134 c 0.31333,0 0.57733,0.10934 0.79733,0.32934 0.22,0.22 0.33067,0.484 0.33067,0.79733 v 46.16533 c 0,0.31734 -0.11067,0.58134 -0.33067,0.80134 -0.22,0.22 -0.484,0.32933 -0.79733,0.32933 h -11.00134 c -0.31733,0 -0.58133,-0.10933 -0.80133,-0.32933 m 1.12667,-55.56934 c -1.408,-1.40933 -2.11334,-3.18 -2.11334,-5.31333 0,-2.19333 0.688,-3.98 2.06934,-5.35867 1.37866,-1.37866 3.16533,-2.06933 5.35866,-2.06933 2.192,0 3.98,0.69067 5.36134,2.06933 1.37466,1.37867 2.06533,3.16534 2.06533,5.35867 0,2.13333 -0.704,3.904 -2.11333,5.31333 -1.41334,1.40934 -3.18267,2.11334 -5.31334,2.11334 -2.132,0 -3.90133,-0.704 -5.31466,-2.11334"
       style="fill:#ffffff;fill-opacity:1;stroke-width:1.33333"
       id="path270" />
    <path
       d="m 487.75879,230.868 c 1.88,-1.44 2.82133,-3.292 2.82133,-5.54667 v -3.38666 c 0,-0.312 -0.15733,-0.47067 -0.47066,-0.47067 h -6.77067 c -2.82133,0 -5.032,0.536 -6.62933,1.59867 -1.59867,1.06933 -2.396,2.57066 -2.396,4.51333 0,1.69333 0.59466,3.028 1.78666,3.996 1.18934,0.97333 2.788,1.45733 4.79467,1.45733 2.69467,0 4.984,-0.71733 6.864,-2.16133 m 5.92133,-35.68267 c 3.2,1.40934 5.692,3.33734 7.476,5.78134 1.788,2.44666 2.68134,5.172 2.68134,8.18 V 241.024 c 0,0.31333 -0.11067,0.57733 -0.33067,0.79733 -0.22,0.22 -0.484,0.33067 -0.79733,0.33067 h -11.00134 c -0.316,0 -0.58133,-0.11067 -0.80133,-0.33067 -0.22,-0.22 -0.32667,-0.484 -0.32667,-0.79733 v -3.10267 c 0,-0.18933 -0.0653,-0.31333 -0.188,-0.37866 -0.128,-0.0613 -0.252,0 -0.37866,0.18933 -2.63334,3.44667 -6.864,5.172 -12.69334,5.172 -4.88666,0 -8.836,-1.192 -11.84666,-3.57467 -3.008,-2.38133 -4.51334,-5.89066 -4.51334,-10.53066 0,-4.82534 1.69467,-8.568 5.07734,-11.23467 3.38533,-2.664 8.21333,-3.99733 14.48,-3.99733 h 9.592 c 0.31333,0 0.47066,-0.15467 0.47066,-0.468 v -2.06934 c 0,-2.06933 -0.628,-3.684 -1.88266,-4.84266 -1.25467,-1.15867 -3.13467,-1.73867 -5.64,-1.73867 -1.94267,0 -3.55734,0.344 -4.84267,1.03467 -1.28533,0.68666 -2.11467,1.66 -2.492,2.91466 -0.18933,0.69067 -0.59467,1.00267 -1.22,0.93734 l -11.38,-1.50134 c -0.75333,-0.12666 -1.09733,-0.40933 -1.03467,-0.84933 0.25067,-2.632 1.30267,-5.01067 3.152,-7.14533 1.848,-2.13067 4.292,-3.79067 7.33334,-4.984 3.03866,-1.18934 6.44133,-1.784 10.20133,-1.784 4.07333,0 7.70933,0.70533 10.90533,2.11466"
       style="fill:#ffffff;fill-opacity:1;stroke-width:1.33333"
       id="path274" />
    <path
       d="m 513.47465,241.82214 c -0.22,-0.22 -0.32933,-0.484 -0.32933,-0.80134 v -63.56 c 0,-0.31333 0.10933,-0.57733 0.32933,-0.79733 0.22,-0.22 0.484,-0.33067 0.79734,-0.33067 h 11.00133 c 0.31333,0 0.58133,0.11067 0.80133,0.33067 0.22,0.22 0.33067,0.484 0.33067,0.79733 v 63.56 c 0,0.31734 -0.11067,0.58134 -0.33067,0.80134 -0.22,0.22 -0.488,0.32933 -0.80133,0.32933 h -11.00133 c -0.31334,0 -0.57734,-0.10933 -0.79734,-0.32933"
       style="fill:#ffffff;fill-opacity:1;stroke-width:1.33333"
       id="path278" />
    <path
       d="m 536.79172,241.82214 c -0.22,-0.22 -0.32933,-0.484 -0.32933,-0.80134 v -46.16533 c 0,-0.31333 0.10933,-0.57733 0.32933,-0.79733 0.22,-0.22 0.484,-0.32934 0.80133,-0.32934 h 10.99734 c 0.31333,0 0.58133,0.10934 0.80133,0.32934 0.22,0.22 0.33067,0.484 0.33067,0.79733 v 46.16533 c 0,0.31734 -0.11067,0.58134 -0.33067,0.80134 -0.22,0.22 -0.488,0.32933 -0.80133,0.32933 h -10.99734 c -0.31733,0 -0.58133,-0.10933 -0.80133,-0.32933 m 1.128,-55.56934 c -1.40933,-1.40933 -2.11467,-3.18 -2.11467,-5.31333 0,-2.19333 0.688,-3.98 2.06934,-5.35867 1.37866,-1.37866 3.16533,-2.06933 5.35866,-2.06933 2.192,0 3.98,0.69067 5.35734,2.06933 1.37866,1.37867 2.06933,3.16534 2.06933,5.35867 0,2.13333 -0.704,3.904 -2.11333,5.31333 -1.41334,1.40934 -3.18267,2.11334 -5.31334,2.11334 -2.13066,0 -3.90133,-0.704 -5.31333,-2.11334"
       style="fill:#ffffff;fill-opacity:1;stroke-width:1.33333"
       id="path282" />
    <path
       d="m 568.33652,241.02267 c -3.13467,-1.18933 -5.564,-2.85333 -7.28667,-4.984 -1.72533,-2.13067 -2.584,-4.544 -2.584,-7.23867 v -0.94133 c 0,-0.312 0.10667,-0.57733 0.32667,-0.79733 0.22,-0.22 0.484,-0.32934 0.8,-0.32934 h 10.43467 c 0.316,0 0.58133,0.10934 0.80133,0.32934 0.22,0.22 0.32933,0.48533 0.32933,0.79733 v 0.096 c 0,1.37867 0.76667,2.55467 2.30267,3.524 1.53733,0.972 3.46133,1.46 5.78133,1.46 2.13067,0 3.856,-0.42667 5.17334,-1.272 1.316,-0.84533 1.976,-1.89333 1.976,-3.148 0,-1.13067 -0.56667,-1.976 -1.69467,-2.54 -1.12667,-0.564 -2.976,-1.15867 -5.54667,-1.78667 -2.94933,-0.75333 -5.26666,-1.472 -6.95733,-2.16266 -4.01467,-1.37734 -7.21067,-3.072 -9.592,-5.076 -2.38267,-2.00667 -3.572,-4.89067 -3.572,-8.65067 0,-4.64 1.80133,-8.32133 5.40667,-11.05067 3.60266,-2.72533 8.38266,-4.08933 14.34,-4.08933 4.01066,0 7.52,0.64533 10.52666,1.928 3.01067,1.28533 5.34534,3.08933 7.008,5.40667 1.66,2.32 2.492,4.952 2.492,7.89733 0,0.31733 -0.10933,0.58133 -0.32933,0.80133 -0.22,0.22 -0.488,0.32667 -0.80133,0.32667 h -10.06 c -0.31334,0 -0.58134,-0.10667 -0.79734,-0.32667 -0.22,-0.22 -0.32933,-0.484 -0.32933,-0.80133 0,-1.37733 -0.70533,-2.536 -2.11733,-3.47733 -1.40934,-0.94267 -3.276,-1.40934 -5.592,-1.40934 -2.06934,0 -3.764,0.37467 -5.08,1.12667 -1.31734,0.75333 -1.97334,1.788 -1.97334,3.104 0,1.25467 0.64267,2.19333 1.928,2.81867 1.28267,0.62933 3.43067,1.28533 6.44134,1.976 0.68666,0.18933 1.47066,0.392 2.35066,0.612 0.876,0.22 1.81467,0.484 2.81867,0.79733 4.45067,1.316 7.96,3.01067 10.53067,5.08 2.57066,2.06533 3.856,5.076 3.856,9.02533 0,4.64 -1.832,8.25867 -5.49867,10.85734 -3.668,2.60533 -8.60667,3.904 -14.81067,3.904 -4.2,0 -7.86666,-0.59734 -11.00133,-1.78667"
       style="fill:#ffffff;fill-opacity:1;stroke-width:1.33333"
       id="path286" />
    <path
       d="m 634.57998,204.11787 c -0.22,0.22 -0.488,0.32933 -0.80133,0.32933 h -9.02534 c -0.312,0 -0.47066,0.15467 -0.47066,0.472 v 19.93067 c 0,2.06933 0.42266,3.60533 1.272,4.60933 0.84533,1.00267 2.20666,1.50134 4.08933,1.50134 h 3.10133 c 0.312,0 0.58,0.11066 0.8,0.33066 0.22,0.22 0.33067,0.488 0.33067,0.8 v 8.93334 c 0,0.69066 -0.37867,1.096 -1.13067,1.22 -2.63333,0.124 -4.51333,0.18933 -5.64133,0.18933 -5.20267,0 -9.09067,-0.86 -11.65733,-2.58533 -2.572,-1.72534 -3.89067,-4.96934 -3.95334,-9.73334 v -25.196 c 0,-0.31733 -0.15466,-0.472 -0.46666,-0.472 h -5.36267 c -0.312,0 -0.57733,-0.10933 -0.79733,-0.32933 -0.22,-0.22 -0.32934,-0.484 -0.32934,-0.80133 v -8.36534 c 0,-0.312 0.10934,-0.58133 0.32934,-0.8 0.22,-0.21733 0.48533,-0.33066 0.79733,-0.33066 h 5.36267 c 0.312,0 0.46666,-0.15467 0.46666,-0.468 v -11.19067 c 0,-0.312 0.11067,-0.57733 0.33067,-0.79733 0.22,-0.22 0.488,-0.32934 0.8,-0.32934 h 10.532 c 0.312,0 0.57733,0.10934 0.79733,0.32934 0.22,0.22 0.32934,0.48533 0.32934,0.79733 v 11.19067 c 0,0.31333 0.15866,0.468 0.47066,0.468 h 9.02534 c 0.31333,0 0.58133,0.11333 0.80133,0.33066 0.22,0.21867 0.32933,0.488 0.32933,0.8 v 8.36534 c 0,0.31733 -0.10933,0.58133 -0.32933,0.80133"
       style="fill:#ffffff;fill-opacity:1;stroke-width:1.33333"
       id="path290" />
    <path
       d="m 655.31198,209.9944 c -0.25067,0.81467 -0.47067,1.81867 -0.66,3.008 0,0.316 0.15867,0.47067 0.47067,0.47067 h 16.268 c 0.37733,0 0.50133,-0.15467 0.37733,-0.47067 -0.316,-1.816 -0.47067,-2.69467 -0.47067,-2.63333 -0.564,-1.88 -1.55333,-3.33734 -2.96266,-4.372 -1.40934,-1.03467 -3.148,-1.54934 -5.21734,-1.54934 -3.94933,0 -6.55066,1.848 -7.80533,5.54667 m 30.088,11.00133 c -0.0627,0.75334 -0.472,1.128 -1.22,1.128 h -29.05733 c -0.37467,0 -0.50134,0.15734 -0.37467,0.47067 0.18933,1.25467 0.53333,2.50533 1.03467,3.76 1.62933,3.51333 4.94933,5.26533 9.968,5.26533 4.01066,-0.0613 7.176,-1.69066 9.496,-4.88666 0.248,-0.37867 0.53333,-0.568 0.84533,-0.568 0.18933,0 0.40533,0.128 0.656,0.37866 l 6.772,6.67467 c 0.312,0.316 0.47067,0.59733 0.47067,0.84533 0,0.12667 -0.128,0.37867 -0.37467,0.75334 -2.06933,2.57066 -4.736,4.56 -7.99467,5.96933 -3.25866,1.41333 -6.83333,2.11733 -10.716,2.11733 -5.39333,0 -9.95466,-1.224 -13.684,-3.66666 -3.728,-2.444 -6.40933,-5.86134 -8.03866,-10.24934 -1.316,-3.13466 -1.976,-7.23866 -1.976,-12.31866 0,-3.444 0.47066,-6.48534 1.412,-9.11867 1.44,-4.45067 3.964,-7.99467 7.56933,-10.62667 3.60533,-2.63333 7.884,-3.94933 12.83333,-3.94933 6.26934,0 11.29734,1.81867 15.092,5.45467 3.79067,3.636 6.09734,8.492 6.912,14.57333 0.37467,2.384 0.50134,5.048 0.37467,7.99333"
       style="fill:#ffffff;fill-opacity:1;stroke-width:1.33333"
       id="path294" />
  </g>
  <path
     d="m 237.85253,208.44507 c -0.512,-15.24667 4.28267,-23.89467 -16.18533,-21.368 -2.148,-6.932 -6.20667,-12.98533 -13.78534,-17.08533 24.244,-8.712 26.60267,-25.97734 27.11067,-31.696 -4.84933,-3.028 -8.36933,-5.544 -15.36667,-7.06667 5.324,-9.68533 9.82267,-19.82133 11.68267,-30.844 -6.96,8.17067 -12.59333,17.62934 -16.59333,27.696 -0.27867,-4.76 -1.912,-9.3 -4.616,-13.05733 2.25466,-9.00533 -0.33334,-18.917334 -6.60667,-25.354667 11.39333,-9.324 24.96267,-16.906666 39.08267,-21.794666 28.524,42.073333 26.31333,100.583993 -4.72267,140.570663 m -6.42,28.644 H 219.3272 c 6.444,-13.232 4.89066,-29.376 3.77333,-43.76 h 8.332 z m -68.13866,10.66133 c 2.296,-2.516 3.272,-6.372 2.268,-9.68133 7.10399,1.98267 15.35999,-0.96933 19.67999,-6.72267 4.45867,7.84934 14.876,12.108 23.63334,9.252 -10.404,13.02667 -31.48,16.58 -45.58133,7.152 m -6.31067,-2.144 c -0.712,0.22267 -20.028,5.08934 -20.70133,5.292 -2.248,0.62267 -4.64,-0.756 -5.252,-3.10266 -0.57334,-2.24534 0.74933,-4.692 3.13866,-5.28 l 20.64534,-5.26534 c 5.36533,-1.47466 7.60666,6.97734 2.16933,8.356 m -35.58667,-12.972 c -1.25733,-4.296 2.392,-7.87066 6.53334,-8.29333 0.87333,-0.0853 25.72933,-6.89733 26.01866,-6.472 7.008,-0.28133 8.544,11.01867 1.54934,12.532 l -22.91734,5.89467 c -4.128,1.63866 -9.89866,1.64933 -11.184,-3.66134 m 1.784,-26.94933 c 3.57467,-0.69467 24.26134,-6.568 30.668,-7.65067 7.14934,-0.18266 8.524,10.95334 1.50934,12.552 -5.788,1.30267 -25.79867,6.988 -30.60667,7.63334 -7.11067,0.22 -8.61733,-10.812 -1.57067,-12.53467 m 0.47067,-19.952 28.46533,-7.45867 0.84134,-0.21866 c 11.17066,-0.888 9.83333,12.77066 -0.83467,13.10133 l -25.31333,6.63333 c -7.77734,2.16134 -11.01867,-10.12266 -3.15867,-12.05733 m 12.05733,-19.03067 c -0.0347,0 -11.97466,-5.664 -13.47333,-18.64266 12.624,-7.52267 35.53867,3.62 36.86533,19.54 -6.18,4.04533 -17.508,2.784 -23.392,-0.89734 m -1.32666,-50.72666 c -0.71867,9.24267 2.612,18.42533 8.70266,25.2 -4.80933,-1.62933 -9.744,-2.23333 -14.59066,-1.62933 -5.24534,-7.64 -2.27467,-19.384 5.888,-23.57067 m 9.41733,-26.293334 c 2.656,-0.961333 5.808,-1.532 8.55067,-0.717333 -8.72267,5.113333 -14.97467,12.990667 -16.85467,23.037337 -4.42,-8.16934 -0.25467,-19.301337 8.304,-22.320004 m 12.14267,4.602667 c 2.84533,6.385337 10.356,10.022667 17.15066,8.245337 -1.416,1.96266 -3.032,3.77333 -4.79866,5.41733 -6.56,-2.09067 -12.18667,-6.23867 -16.232,-11.704001 1.14133,-0.762666 2.344,-1.601333 3.64,-2.481333 0.072,0.178667 0.16133,0.350667 0.24,0.522667 m 9.21066,-6.228 c -0.02,0.873333 -0.164,6.988 -0.18533,7.857333 -2.03733,-1.161333 -3.53333,-3.090666 -4.26133,-5.334666 1.484,-0.897334 3.004,-1.777334 4.44666,-2.522667 M 171.8312,74.89974 c 5.92933,-0.0093 11.084,3.289333 13.87466,8.273333 -2.93866,0.06133 -5.84266,0.690667 -8.55733,1.78 -8.07733,-5.722666 -12.58,-4.161333 -20.33066,1.18 1.94266,-6.465333 7.93333,-11.236 15.01333,-11.233333 m 26.66133,57.45733 c 2.44267,-5.36533 3.464,-11.404 2.87333,-17.27866 4.51867,3.62933 7.2,9.164 6.96667,15.24 -3.352,0.23333 -6.644,0.91733 -9.84,2.03866 m -25.46133,22.54 v 16.07733 c -4.80933,2.80534 -6.868,7.65067 -6.868,7.65067 v -23.728 c -0.0653,-4.45467 6.93333,-4.45467 6.868,0 m -10.58,-20.87733 c 6.73733,4.26533 14.43866,6.31067 22.67733,5.592 -22.71866,19.77333 -57.088,-10.908 -40.16133,-35.964 0.35067,12.63467 7.32133,23.908 17.484,30.372 m 16.88666,-18.728 c -11.10533,11.60667 -28.44799,8.90267 -28.51733,-11.45867 7.33467,7.63334 17.96134,11.75467 28.51733,11.45867 m 10.33867,-12.34267 c 6.23067,8.67867 6.444,21.12134 0.52533,30.03334 -7.54133,1.91066 -19.68399,0.52266 -26.49866,-5.15867 13.716,0.78667 26.22,-10.94 25.97333,-24.87467 m -18.85866,-5.941331 c 0.009,-0.698666 0.13333,-8.098666 0.14666,-8.785333 2.052,1.085334 4.21467,2.394667 6.44133,3.808 -0.81066,2.738667 -3.87733,4.485333 -6.58799,4.977333 m 4.30266,12.306671 c 3.33067,-3.76667 5.93867,-8.09734 7.67067,-12.905337 1.40666,4.003997 1.448,8.698667 0.0627,12.654667 -2.53333,0.36133 -5.15866,0.45067 -7.73333,0.25067 m 42.45333,108.58933 c 0,23.84933 -28.54,22.33066 -28.54,5.77466 -0.67733,-1.65733 -0.18266,-30.70266 -0.324,-33.25333 0.0827,-3.74 -5.87733,-3.82933 -5.812,0 -1.16133,12.97733 6.428,46.92533 -16.66533,41.13333 -0.0107,-9.472 0.003,-21.148 0,-30.02533 -3.076,-36.236 49.75733,-40.02667 51.34133,-3.49867 v 19.86934 m -1.416,-80.93867 c 4.23467,0.544 8.31734,1.98667 11.93334,4.56134 0.168,12.11199 -28.26934,34.28133 -49.816,18.99999 2.41333,-13.92666 21.70133,-25.75999 37.88266,-23.56133 M 193.1992,90.40774 c 7.24533,3.08 12.08133,10.78267 11.132,18.86267 -0.71467,-0.516 -5.80134,-4.228 -6.352,-4.62667 -2.904,-6.640001 -7.984,-11.716 -14.15334,-15.410667 0,-0.01733 0,-0.01733 -0.02,-0.06267 3.27867,-0.498666 6.50267,0 9.39334,1.237334 m 62.1,-12.933333 c -3.01467,-5.990667 -6.44134,-11.650667 -10.22267,-16.972 -16.75867,5.108 -33.44133,14.153333 -46.62533,25.265333 -1.59467,-0.913334 -3.31067,-1.66 -5.16934,-2.172 -7.4,-18.954666 -33.91999,-20.453333 -41.88399,-1.333334 -15.796,-1.697333 -28.448,15.078667 -22.82134,29.860007 -8.98133,6.33466 -11.46533,19.488 -6.64666,29.02266 -3.24534,1.27467 -4.11467,2.18533 -6.53734,3.60933 0.092,13.85734 10.352,26.53334 23.712,30.32134 l -17.04133,4.37466 c -9.87733,2.21334 -12.944,16.10267 -4.984,22.24134 -6.89733,4.89066 -6.53333,16.624 0.82533,20.93066 -6.46533,6.836 -2.23733,19.416 7.06667,20.92134 -2.808,21.89733 21.51867,11.04 33.00533,8.43466 18.66667,13.188 44.296,8.06 57.36667,-8.668 27.28666,2 22.14533,-1.52266 22.50933,-25.01866 32.76533,-38.22934 41.40533,-93.19067 17.44667,-140.817336"
     style="fill:#ffffff;fill-opacity:1;stroke-width:1.33333"
     id="path226" />
</svg>
